Coordinates
version=1
nRows=9
nColumns=63
inDegrees=yes

Units are S.I. units (second, meters, Newtons, ...)
If the header above contains a line with 'inDegrees', this indicates whether rotational values are in degrees (yes) or radians (no).

endheader
time	pelvis_tilt	pelvis_list	pelvis_rotation	pelvis_tx	pelvis_ty	pelvis_tz	hip_flexion_r	hip_adduction_r	hip_rotation_r	knee_angle_r	knee_angle_r_beta	ankle_angle_r	subtalar_angle_r	mtp_angle_r	hip_flexion_l	hip_adduction_l	hip_rotation_l	knee_angle_l	knee_angle_l_beta	ankle_angle_l	subtalar_angle_l	mtp_angle_l	L5_S1_Flex_Ext	L5_S1_Lat_Bending	L5_S1_axial_rotation	L4_L5_Flex_Ext	L4_L5_Lat_Bending	L4_L5_axial_rotation	L3_L4_Flex_Ext	L3_L4_Lat_Bending	L3_L4_axial_rotation	L2_L3_Flex_Ext	L2_L3_Lat_Bending	L2_L3_axial_rotation	L1_L2_Flex_Ext	L1_L2_Lat_Bending	L1_L2_axial_rotation	L1_T12_Flex_Ext	L1_T12_Lat_Bending	L1_T12_axial_rotation	Abs_r3	Abs_r2	Abs_r1	Abs_t1	Abs_t2	neck_flexion	neck_bending	neck_rotation	arm_flex_r	arm_add_r	arm_rot_r	elbow_flex_r	pro_sup_r	wrist_flex_r	wrist_dev_r	arm_flex_l	arm_add_l	arm_rot_l	elbow_flex_l	pro_sup_l	wrist_flex_l	wrist_dev_l
      1.60000000	     -1.73077219	     -3.11988132	     91.02347787	      0.24727115	      0.71447514	      0.65375210	     -0.59044193	     -0.39272077	    -17.91737466	      8.85100818	      0.15447923	     17.87750254	     17.65175314	      0.00000000	     -0.00412281	      0.34408443	    -15.91418871	      8.00258573	      0.13967147	     19.97968232	     12.17482886	      0.00000000	      0.01745020	     -0.38896473	      0.23122586	      0.03240677	     -0.51732309	      0.24567747	      0.02866893	     -0.94572885	      0.24567747	      0.01994383	     -0.94572885	      0.20232262	      0.01620426	     -0.79317688	      0.18787101	      0.00997104	     -0.60250637	      0.17341939	      0.12464503	     -4.40004685	      1.28600885	      0.00000000	      0.00000000	     19.96294362	      4.88803240	     -7.97509808	      6.00463972	     -9.32110133	    -16.40491992	    121.47685429	     72.41669316	     -4.77421405	     11.24007341	      9.45953006	    -10.63285484	    141.04343918	      1.53356510	      2.27570001	      4.43019567	     -7.70684722
      1.61666667	     -1.88953509	     -2.96601636	     90.53568872	      0.24838200	      0.71457930	      0.65314802	     -0.85668781	     -0.44472721	    -17.07264686	      8.54817827	      0.14919386	     18.10945707	     17.45702603	      0.00000000	     -0.11244768	      0.45112603	    -16.25468435	      8.25764509	      0.14412310	     19.82171355	     11.75910067	      0.00000000	      0.02583433	     -0.42589587	      0.31897340	      0.04797693	     -0.56644151	      0.33890924	      0.04244322	     -1.03552322	      0.33890924	      0.02952606	     -1.03552322	      0.27910173	      0.02398976	     -0.86848686	      0.25916589	      0.01476174	     -0.65971270	      0.23923005	      0.18453203	     -4.81781925	      1.77403438	      0.00000000	      0.00000000	     20.14250417	      4.68882967	     -9.02962553	      5.78070984	     -9.14325990	    -16.62960519	    121.09496237	     70.87210545	     -5.24777486	     11.46351556	      9.22983024	    -11.24459048	    137.01452692	      2.09038287	      2.26525000	      5.45462139	     -7.54111171
      1.63333333	     -1.95262286	     -2.86168180	     90.45715817	      0.24894938	      0.71460443	      0.65233175	     -1.10745025	     -0.41567995	    -16.91296830	      8.31102354	      0.14505473	     18.40179764	     17.48388803	      0.00000000	     -0.15674211	      0.44767146	    -16.40692861	      8.49751493	      0.14830961	     19.69283748	     11.61237933	      0.00000000	      0.03775886	     -0.44459446	      0.34133244	      0.07012199	     -0.59131063	      0.36266572	      0.06203404	     -1.08098697	      0.36266572	      0.04315461	     -1.08098697	      0.29866589	      0.03506288	     -0.90661702	      0.27733261	      0.02157542	     -0.68867682	      0.25599933	      0.26970779	     -5.02934146	      1.89838864	      0.00000000	      0.00000000	     20.31908018	      4.72349696	     -9.23885299	      5.48500022	     -9.18399652	    -16.35928218	    121.00080192	     70.91205877	     -5.23569577	     11.49357759	      9.03450450	    -11.66395490	    136.58441361	      2.26723494	      2.01501272	      5.55905232	     -7.48663422
      1.65000000	     -2.14749843	     -2.71672382	     89.90132734	      0.25002925	      0.71482939	      0.65216287	     -1.39060446	     -0.50258678	    -15.81046999	      7.89116115	      0.13772674	     18.37260891	     17.00675600	      0.00000000	     -0.22397675	      0.59818598	    -16.89966869	      8.75742744	      0.15284594	     19.58139376	     11.17710778	      0.00000000	      0.02743210	     -0.47976284	      0.42861430	      0.05094415	     -0.63808458	      0.45540269	      0.04506820	     -1.16649537	      0.45540269	      0.03135215	     -1.16649537	      0.37503751	      0.02547345	     -0.97833238	      0.34824912	      0.01567470	     -0.74315264	      0.32146072	      0.19594474	     -5.42717319	      2.38382413	      0.00000000	      0.00000000	     20.43337864	      4.70662528	     -9.94138194	      5.54102202	     -9.20368979	    -15.51944225	    120.95966230	     73.45050205	     -5.80165235	     11.46822978	      9.01796011	    -12.22290610	    131.11132580	      3.27675732	      2.52394635	      5.86635023	     -7.25103192
      1.66666667	     -2.25064937	     -2.63349364	     89.86698919	      0.25028045	      0.71488892	      0.65187692	     -1.61443530	     -0.54655336	    -15.66492830	      7.61382519	      0.13288632	     18.37850564	     16.94695394	      0.00000000	     -0.18338692	      0.64001131	    -17.05989317	      9.06316315	      0.15818204	     19.73297388	     11.13097115	      0.00000000	      0.01910953	     -0.49347297	      0.39637821	      0.03548831	     -0.65631905	      0.42115184	      0.03139505	     -1.19983019	      0.42115184	      0.02184029	     -1.19983019	      0.34683093	      0.01774511	     -1.00629009	      0.32205729	      0.01091919	     -0.76438963	      0.29728365	      0.13649748	     -5.58226496	      2.20453667	      0.00000000	      0.00000000	     20.50320399	      4.94031456	     -9.40047666	      5.72571311	     -9.34664184	    -14.21775532	    121.24484059	     76.38033109	     -6.11216477	     12.14896946	      8.87936162	    -12.46884841	    129.86010329	      3.41390888	      2.48529870	      6.00202960	     -7.09466984
      1.68333333	     -2.36981141	     -2.61195714	     89.82933755	      0.25032576	      0.71490266	      0.65198920	     -1.74013114	     -0.63425641	    -15.64023042	      7.36467552	      0.12853784	     18.32283461	     17.00696210	      0.00000000	     -0.00377290	      0.69900766	    -17.17043646	      9.46787575	      0.16524560	     19.85292262	     11.03347175	      0.00000000	      0.00719991	     -0.50826919	      0.37926031	      0.01337095	     -0.67599803	      0.40296408	      0.01182873	     -1.23580572	      0.40296408	      0.00822878	     -1.23580572	      0.33185278	      0.00668584	     -1.03646254	      0.30814901	      0.00411403	     -0.78730898	      0.28444524	      0.05142824	     -5.74964277	      2.10933209	      0.00000000	      0.00000000	     20.49967698	      5.06309349	     -9.29565024	      5.87889307	     -9.65750802	    -12.84256795	    121.62025925	     77.20844821	     -5.88857932	     12.37745456	      8.92713429	    -12.57163445	    129.92753113	      3.38728732	      2.57878540	      5.81925409	     -6.88906370
      1.70000000	     -2.36262630	     -2.56038634	     90.22055900	      0.24969986	      0.71488744	      0.65228030	     -1.91351054	     -0.59377761	    -16.11975274	      7.15721860	      0.12491703	     18.11811395	     17.06300449	      0.00000000	      0.23464450	      0.61649593	    -16.96204866	      9.97646960	      0.17412224	     20.08516896	     11.06559839	      0.00000000	     -0.01206885	     -0.49553188	      0.20860704	     -0.02241307	     -0.65905740	      0.22164498	     -0.01982792	     -1.20483621	      0.22164498	     -0.01379349	     -1.20483621	      0.18253116	     -0.01120714	     -1.01048861	      0.16949322	     -0.00689614	     -0.76757888	      0.15645528	     -0.08620662	     -5.60555572	      1.16020975	      0.00000000	      0.00000000	     20.42459339	      5.75162894	     -7.44190485	      6.35195898	     -9.75328494	    -11.16284928	    122.03276545	     82.40078582	     -6.52735545	     12.70783200	      8.71693822	    -12.46936470	    130.32834755	      3.03330831	      2.43366076	      5.30906087	     -6.71892521
      1.71666667	     -2.32675866	     -2.54701785	     90.38808538	      0.24912596	      0.71479201	      0.65275256	     -1.96661126	     -0.56219770	    -16.45842786	      7.05311727	      0.12310012	     17.84781153	     17.14907848	      0.00000000	      0.47413568	      0.53893392	    -16.71793595	     10.41912986	      0.18184812	     20.23484325	     10.92171536	      0.00000000	     -0.02813376	     -0.48055406	      0.10718272	     -0.05224720	     -0.63913690	      0.11388164	     -0.04622095	     -1.16841915	      0.11388164	     -0.03215407	     -1.16841915	      0.09378488	     -0.02612501	     -0.97994585	      0.08708596	     -0.01607563	     -0.74437824	      0.08038704	     -0.20095662	     -5.43612368	      0.59611813	      0.00000000	      0.00000000	     20.38520818	      5.98003676	     -6.34360192	      6.68857079	    -10.07786782	     -9.97977075	    122.30878842	     84.23040655	     -6.41792138	     12.35990698	      8.65210769	    -12.28957291	    131.43110938	      2.62065164	      2.44495060	      4.89043870	     -6.40834840
      1.73333333	     -2.28954831	     -2.56944206	     90.58268188	      0.24851107	      0.71464806	      0.65328764	     -1.96445524	     -0.54264684	    -16.91878187	      7.00720641	      0.12229882	     17.56669779	     17.30162659	      0.00000000	      0.71549459	      0.46084943	    -16.66078691	     10.79014393	      0.18832354	     20.43308965	     11.13282758	      0.00000000	     -0.04159047	     -0.46760160	      0.00924382	     -0.07723767	     -0.62191012	      0.00982156	     -0.06832899	     -1.13692652	      0.00982156	     -0.04753375	     -1.13692652	      0.00808834	     -0.03862091	     -0.95353317	      0.00751060	     -0.02376480	     -0.72431487	      0.00693286	     -0.29707659	     -5.28960277	      0.05141135	      0.00000000	      0.00000000	     20.41261881	      6.22027326	     -5.42328623	      6.89050504	    -10.28005675	     -9.42112538	    122.50938878	     85.23733381	     -6.30708054	     11.65127986	      8.65126659	    -12.16720950	    132.53719781	      2.36251961	      2.50474647	      4.52384212	     -6.16492250
